HIERARCHY
ROOT newVegas:Hips
{
	OFFSET 0.000000 96.479958 0.000000
	CHANNELS 6 Xposition Yposition Zposition Xrotation Yrotation Zrotation
	JOINT newVegas:Pelvis
	{
		OFFSET 0.000000 0.000000 0.000000
		CHANNELS 3 Xrotation Yrotation Zrotation
		JOINT newVegas:LeftUpLeg
		{
			OFFSET 18.735201 -5.666702 -4.541200
			CHANNELS 3 Xrotation Yrotation Zrotation
			JOINT newVegas:LeftLeg
			{
				OFFSET -0.021200 -31.938179 0.493100
				CHANNELS 3 Xrotation Yrotation Zrotation
				JOINT newVegas:LeftFoot
				{
					OFFSET 0.021200 -31.938179 -4.336299
					CHANNELS 3 Xrotation Yrotation Zrotation
					JOINT newVegas:LeftToeBase
					{
						OFFSET 0.943001 -26.722000 15.023500
						CHANNELS 3 Xrotation Yrotation Zrotation
						End Site
						{
							OFFSET 0.000000 30.670183 0.000000
						}
					}
				}
				JOINT newVegas:Left_PantLeg
				{
					OFFSET 0.663870 -9.044666 -1.108900
					CHANNELS 3 Xrotation Yrotation Zrotation
					End Site
					{
						OFFSET 1.415995 20.635357 0.000000
					}
				}
			}
		}
		JOINT newVegas:RightUpLeg
		{
			OFFSET -18.735201 -5.666702 -4.541200
			CHANNELS 3 Xrotation Yrotation Zrotation
			JOINT newVegas:RightLeg
			{
				OFFSET 0.018946 -31.938133 0.493100
				CHANNELS 3 Xrotation Yrotation Zrotation
				JOINT newVegas:RightFoot
				{
					OFFSET -0.018946 -31.938126 -4.336299
					CHANNELS 3 Xrotation Yrotation Zrotation
					JOINT newVegas:RightToeBase
					{
						OFFSET -0.943001 -26.722004 15.023500
						CHANNELS 3 Xrotation Yrotation Zrotation
						End Site
						{
							OFFSET 0.000000 30.670187 0.000000
						}
					}
				}
				JOINT newVegas:Right_PantLeg
				{
					OFFSET -0.661674 -9.044716 -1.108900
					CHANNELS 3 Xrotation Yrotation Zrotation
					End Site
					{
						OFFSET -1.415958 20.635269 0.000000
					}
				}
			}
		}
	}
	JOINT newVegas:Spine
	{
		OFFSET 0.000000 10.199997 -0.299500
		CHANNELS 3 Xrotation Yrotation Zrotation
		JOINT newVegas:Spine1
		{
			OFFSET 0.000000 11.900002 -1.516600
			CHANNELS 3 Xrotation Yrotation Zrotation
			JOINT newVegas:Spine2
			{
				OFFSET 0.000000 13.600006 -2.842500
				CHANNELS 3 Xrotation Yrotation Zrotation
				JOINT newVegas:Neck
				{
					OFFSET 0.000000 9.624100 -2.890100
					CHANNELS 3 Xrotation Yrotation Zrotation
					JOINT newVegas:Head
					{
						OFFSET 0.000000 14.068802 -1.351900
						CHANNELS 3 Xrotation Yrotation Zrotation
						JOINT newVegas:Hair_Back
						{
							OFFSET 0.000000 3.231903 -17.524799
							CHANNELS 3 Xrotation Yrotation Zrotation
							End Site
							{
								OFFSET 0.000000 19.849884 0.000000
							}
						}
						JOINT newVegas:Hair_Front
						{
							OFFSET 0.000000 31.260406 4.573800
							CHANNELS 3 Xrotation Yrotation Zrotation
							JOINT newVegas:Hair_Front1
							{
								OFFSET 0.000000 2.284103 11.993300
								CHANNELS 3 Xrotation Yrotation Zrotation
								JOINT newVegas:Hair_Front2
								{
									OFFSET 0.000000 2.284103 11.993300
									CHANNELS 3 Xrotation Yrotation Zrotation
									End Site
									{
										OFFSET 0.000000 12.208862 0.000000
									}
								}
							}
						}
						JOINT newVegas:Jowel
						{
							OFFSET 0.000000 -7.458206 6.864100
							CHANNELS 3 Xrotation Yrotation Zrotation
							End Site
							{
								OFFSET 0.000000 19.849884 0.000000
							}
						}
					}
				}
				JOINT newVegas:LeftShoulder
				{
					OFFSET 15.263000 10.923401 -0.547700
					CHANNELS 3 Xrotation Yrotation Zrotation
					JOINT newVegas:LeftArm
					{
						OFFSET 25.438599 -2.830597 -13.032500
						CHANNELS 3 Xrotation Yrotation Zrotation
						JOINT newVegas:LeftForeArm
						{
							OFFSET 29.960503 0.000000 0.000000
							CHANNELS 3 Xrotation Yrotation Zrotation
							JOINT newVegas:LeftHand
							{
								OFFSET 27.849251 0.000000 0.000000
								CHANNELS 3 Xrotation Yrotation Zrotation
								JOINT newVegas:LeftHandThumb1
								{
									OFFSET 4.487587 -3.305161 6.305391
									CHANNELS 3 Xrotation Yrotation Zrotation
									JOINT newVegas:LeftHandThumb2
									{
										OFFSET 5.480453 -3.164139 3.164143
										CHANNELS 3 Xrotation Yrotation Zrotation
										JOINT newVegas:LeftHandThumb3
										{
											OFFSET 5.159721 -2.978973 2.978967
											CHANNELS 3 Xrotation Yrotation Zrotation
											End Site
											{
												OFFSET 2.494507 5.926697 1.738678
											}
										}
									}
								}
								JOINT newVegas:LeftHandIndex1
								{
									OFFSET 18.578728 -0.527832 5.208049
									CHANNELS 3 Xrotation Yrotation Zrotation
									JOINT newVegas:LeftHandIndex2
									{
										OFFSET 3.192009 0.000000 0.000000
										CHANNELS 3 Xrotation Yrotation Zrotation
										JOINT newVegas:LeftHandIndex3
										{
											OFFSET 3.835129 0.000000 0.000000
											CHANNELS 3 Xrotation Yrotation Zrotation
											End Site
											{
												OFFSET -0.034599 3.816971 0.371180
											}
										}
									}
								}
								JOINT newVegas:LeftHandMiddle1
								{
									OFFSET 18.476105 0.000000 0.000000
									CHANNELS 3 Xrotation Yrotation Zrotation
									JOINT newVegas:LeftHandMiddle2
									{
										OFFSET 3.324875 0.000000 0.000000
										CHANNELS 3 Xrotation Yrotation Zrotation
										JOINT newVegas:LeftHandMiddle3
										{
											OFFSET 4.596550 0.000000 0.000000
											CHANNELS 3 Xrotation Yrotation Zrotation
											End Site
											{
												OFFSET 0.057701 4.578827 0.399218
											}
										}
									}
								}
								JOINT newVegas:LeftHandRing1
								{
									OFFSET 17.732719 0.121887 -4.201567
									CHANNELS 3 Xrotation Yrotation Zrotation
									JOINT newVegas:LeftHandRing2
									{
										OFFSET 2.733170 0.000000 0.000000
										CHANNELS 3 Xrotation Yrotation Zrotation
										JOINT newVegas:LeftHandRing3
										{
											OFFSET 3.178268 0.000000 0.000000
											CHANNELS 3 Xrotation Yrotation Zrotation
											End Site
											{
												OFFSET 0.119102 3.170624 0.185394
											}
										}
									}
								}
								JOINT newVegas:LeftHandPinky1
								{
									OFFSET 15.989624 -0.606689 -7.535461
									CHANNELS 3 Xrotation Yrotation Zrotation
									JOINT newVegas:LeftHandPinky2
									{
										OFFSET 2.538986 0.000000 0.000000
										CHANNELS 3 Xrotation Yrotation Zrotation
										JOINT newVegas:LeftHandPinky3
										{
											OFFSET 2.593102 0.000000 0.000000
											CHANNELS 3 Xrotation Yrotation Zrotation
											End Site
											{
												OFFSET -0.150902 2.584198 0.152708
											}
										}
									}
								}
							}
							JOINT newVegas:Left_Sleeve
							{
								OFFSET 0.267448 -0.649796 0.577675
								CHANNELS 3 Xrotation Yrotation Zrotation
								End Site
								{
									OFFSET 0.000000 15.991241 0.000000
								}
							}
							JOINT newVegas:Left_CapeC
							{
								OFFSET 15.715958 -8.608795 -6.935905
								CHANNELS 3 Xrotation Yrotation Zrotation
								JOINT newVegas:Left_CapeC1
								{
									OFFSET 0.000000 -8.688499 0.000000
									CHANNELS 3 Xrotation Yrotation Zrotation
									End Site
									{
										OFFSET 0.000000 8.688499 0.000000
									}
								}
							}
						}
						JOINT newVegas:Left_CapeB
						{
							OFFSET 26.118385 -8.608795 -7.079235
							CHANNELS 3 Xrotation Yrotation Zrotation
							JOINT newVegas:Left_CapeB1
							{
								OFFSET 0.000000 -8.688499 0.000000
								CHANNELS 3 Xrotation Yrotation Zrotation
								End Site
								{
									OFFSET 0.000000 8.688499 0.000000
								}
							}
						}
						JOINT newVegas:Left_CapeA
						{
							OFFSET 5.115639 -8.608795 -10.395809
							CHANNELS 3 Xrotation Yrotation Zrotation
							JOINT newVegas:Left_CapeA1
							{
								OFFSET 0.000000 -8.688499 0.000000
								CHANNELS 3 Xrotation Yrotation Zrotation
								End Site
								{
									OFFSET 0.000000 8.688499 0.000000
								}
							}
						}
					}
				}
				JOINT newVegas:RightShoulder
				{
					OFFSET -15.263000 10.923401 -0.547700
					CHANNELS 3 Xrotation Yrotation Zrotation
					JOINT newVegas:RightArm
					{
						OFFSET -25.438599 -2.830597 -13.032500
						CHANNELS 3 Xrotation Yrotation Zrotation
						JOINT newVegas:RightForeArm
						{
							OFFSET -29.960503 0.000000 0.000000
							CHANNELS 3 Xrotation Yrotation Zrotation
							JOINT newVegas:RightHand
							{
								OFFSET -27.849251 0.000000 0.000000
								CHANNELS 3 Xrotation Yrotation Zrotation
								JOINT newVegas:RightHandThumb1
								{
									OFFSET -4.487587 -3.305161 6.305391
									CHANNELS 3 Xrotation Yrotation Zrotation
									JOINT newVegas:RightHandThumb2
									{
										OFFSET -5.480453 -3.164139 3.164143
										CHANNELS 3 Xrotation Yrotation Zrotation
										JOINT newVegas:RightHandThumb3
										{
											OFFSET -5.159721 -2.978973 2.978967
											CHANNELS 3 Xrotation Yrotation Zrotation
											End Site
											{
												OFFSET -2.494507 5.926697 1.738678
											}
										}
									}
								}
								JOINT newVegas:RightHandIndex1
								{
									OFFSET -18.578728 -0.527832 5.208049
									CHANNELS 3 Xrotation Yrotation Zrotation
									JOINT newVegas:RightHandIndex2
									{
										OFFSET -3.192009 0.000000 0.000000
										CHANNELS 3 Xrotation Yrotation Zrotation
										JOINT newVegas:RightHandIndex3
										{
											OFFSET -3.835129 0.000000 0.000000
											CHANNELS 3 Xrotation Yrotation Zrotation
											End Site
											{
												OFFSET 0.034599 3.816971 0.371180
											}
										}
									}
								}
								JOINT newVegas:RightHandMiddle1
								{
									OFFSET -18.476105 0.000000 0.000000
									CHANNELS 3 Xrotation Yrotation Zrotation
									JOINT newVegas:RightHandMiddle2
									{
										OFFSET -3.324875 0.000000 0.000000
										CHANNELS 3 Xrotation Yrotation Zrotation
										JOINT newVegas:RightHandMiddle3
										{
											OFFSET -4.596550 0.000000 0.000000
											CHANNELS 3 Xrotation Yrotation Zrotation
											End Site
											{
												OFFSET -0.057701 4.578827 0.399218
											}
										}
									}
								}
								JOINT newVegas:RightHandRing1
								{
									OFFSET -17.732719 0.121887 -4.201567
									CHANNELS 3 Xrotation Yrotation Zrotation
									JOINT newVegas:RightHandRing2
									{
										OFFSET -2.733170 0.000000 0.000000
										CHANNELS 3 Xrotation Yrotation Zrotation
										JOINT newVegas:RightHandRing3
										{
											OFFSET -3.178268 0.000000 0.000000
											CHANNELS 3 Xrotation Yrotation Zrotation
											End Site
											{
												OFFSET -0.119102 3.170624 0.185394
											}
										}
									}
								}
								JOINT newVegas:RightHandPinky1
								{
									OFFSET -15.989624 -0.606689 -7.535461
									CHANNELS 3 Xrotation Yrotation Zrotation
									JOINT newVegas:RightHandPinky2
									{
										OFFSET -2.538986 0.000000 0.000000
										CHANNELS 3 Xrotation Yrotation Zrotation
										JOINT newVegas:RightHandPinky3
										{
											OFFSET -2.593102 0.000000 0.000000
											CHANNELS 3 Xrotation Yrotation Zrotation
											End Site
											{
												OFFSET 0.150902 2.584198 0.152708
											}
										}
									}
								}
							}
							JOINT newVegas:Right_CapeC
							{
								OFFSET -15.715958 -8.608795 -6.935905
								CHANNELS 3 Xrotation Yrotation Zrotation
								JOINT newVegas:Right_CapeC1
								{
									OFFSET 0.000000 -8.688499 0.000000
									CHANNELS 3 Xrotation Yrotation Zrotation
									End Site
									{
										OFFSET 0.000000 8.688499 0.000000
									}
								}
							}
							JOINT newVegas:Right_Sleeve
							{
								OFFSET -0.267448 -0.649994 0.577675
								CHANNELS 3 Xrotation Yrotation Zrotation
								End Site
								{
									OFFSET 0.000000 15.991302 0.000000
								}
							}
						}
						JOINT newVegas:Right_CapeA
						{
							OFFSET -5.115540 -8.608795 -10.395824
							CHANNELS 3 Xrotation Yrotation Zrotation
							JOINT newVegas:Right_CapeA1
							{
								OFFSET 0.000000 -8.688499 0.000000
								CHANNELS 3 Xrotation Yrotation Zrotation
								End Site
								{
									OFFSET 0.000000 8.688499 0.000000
								}
							}
						}
						JOINT newVegas:Right_CapeB
						{
							OFFSET -26.118187 -8.608795 -7.079266
							CHANNELS 3 Xrotation Yrotation Zrotation
							JOINT newVegas:Right_CapeB1
							{
								OFFSET 0.000000 -8.688499 0.000000
								CHANNELS 3 Xrotation Yrotation Zrotation
								End Site
								{
									OFFSET 0.000000 8.688499 0.000000
								}
							}
						}
					}
				}
				JOINT newVegas:Left_Collar
				{
					OFFSET 18.625099 8.655502 8.828100
					CHANNELS 3 Xrotation Yrotation Zrotation
					JOINT newVegas:Left_Collar1
					{
						OFFSET 14.783401 10.540405 -1.259500
						CHANNELS 3 Xrotation Yrotation Zrotation
						End Site
						{
							OFFSET 0.000000 18.199875 0.000000
						}
					}
				}
				JOINT newVegas:Collar_Back
				{
					OFFSET 0.000000 15.630707 -20.132601
					CHANNELS 3 Xrotation Yrotation Zrotation
					End Site
					{
						OFFSET 0.000000 22.523010 0.000000
					}
				}
				JOINT newVegas:Left_Peck
				{
					OFFSET 17.239599 -5.132599 25.482599
					CHANNELS 3 Xrotation Yrotation Zrotation
					End Site
					{
						OFFSET 0.000000 22.523010 0.000000
					}
				}
				JOINT newVegas:Right_Peck
				{
					OFFSET -17.239599 -5.132202 25.482599
					CHANNELS 3 Xrotation Yrotation Zrotation
					End Site
					{
						OFFSET 0.000000 22.523010 0.000000
					}
				}
				JOINT newVegas:Right_Collar
				{
					OFFSET -18.625099 8.655792 8.828100
					CHANNELS 3 Xrotation Yrotation Zrotation
					JOINT newVegas:Right_Collar1
					{
						OFFSET -14.783401 10.539993 -1.259500
						CHANNELS 3 Xrotation Yrotation Zrotation
						End Site
						{
							OFFSET 0.000000 18.199631 0.000000
						}
					}
				}
			}
		}
		JOINT newVegas:Belly
		{
			OFFSET 0.000000 -6.540398 9.014299
			CHANNELS 3 Xrotation Yrotation Zrotation
			End Site
			{
				OFFSET 0.000000 11.566666 0.000000
			}
		}
	}
	JOINT newVegas:ElvisFacialAnim_Joint
	{
		OFFSET 1.000000 -95.330101 -8.825800
		CHANNELS 3 Xrotation Yrotation Zrotation
		End Site
		{
			OFFSET 0.000000 35.315800 0.000000
		}
	}
}
MOTION
Frames: 4
Frame Time: 0.033333
-3.463193 93.848763 -4.053461 4.664477 -13.079214 7.774848 0.000000 0.000001 0.000000 -5.759383 19.707184 -9.972752 2.820569 0.187105 -0.009027 -1.184910 4.528156 4.187350 0.000000 -0.000000 -0.000000 -0.000000 -0.000001 -0.000000 -32.597201 -7.233112 -19.260625 31.992732 0.948131 0.395743 -4.659383 -5.036755 4.823805 0.000000 -0.000000 0.000000 -0.000000 0.000000 -0.000001 3.519115 -0.100425 2.076943 7.003646 -0.180739 4.512449 7.013545 -0.204193 4.518119 -1.398970 0.510422 0.988771 -1.398969 0.510431 0.988769 -0.000000 0.000000 -0.000002 -1.398969 0.510446 0.988757 -1.398981 0.510405 0.988767 0.000001 -0.000001 -0.000002 -0.000000 0.000000 -0.000002 6.455104 -18.425596 20.418543 24.389934 -21.268212 -77.068153 -8.562335 -59.787112 -7.740239 -8.185596 -7.735071 2.623983 -25.438590 18.180980 -4.921593 3.803983 18.616053 7.695706 -0.000002 -0.000002 -0.000005 -2.697870 4.799162 -5.658866 1.648588 4.597439 -15.048092 -0.000003 -0.000000 -0.000000 -7.459483 6.372492 -8.303286 2.483268 4.659204 -21.101721 0.000001 -0.000000 -0.000000 -12.876638 10.321409 -21.141239 2.537129 4.645982 -20.469717 -0.000001 -0.000001 0.000000 -7.003215 10.704591 -33.594357 1.021612 -0.104664 -7.936197 -0.000003 -0.000003 0.000002 0.000001 -0.000001 -0.000000 0.000001 -0.000001 -0.000000 0.000000 -0.000000 -0.000000 0.000001 0.000003 -0.000000 0.000001 0.000002 0.000001 0.000001 0.000003 -0.000000 0.000001 0.000002 -0.000001 5.178040 14.273674 -10.091992 -24.758787 12.326850 48.274660 60.449811 61.095011 -57.003625 -9.597346 19.824458 14.001878 -27.037027 -15.770301 6.496362 1.058841 -11.059444 -5.425497 0.000000 0.000001 -0.000000 -2.580962 -5.311225 -3.046875 1.839267 -5.270537 18.858349 -0.000001 0.000001 -0.000001 -7.418809 -5.174260 3.269301 2.208498 -4.469727 17.026750 0.000000 0.000001 -0.000000 -13.727462 -7.695496 4.171706 2.481997 -4.475739 18.846232 0.000001 -0.000001 -0.000002 -18.454273 -13.223555 6.826389 1.180025 -0.445871 12.915588 0.000002 0.000001 0.000002 0.000002 -0.000000 0.000001 0.000002 0.000000 0.000000 0.000002 -0.000000 0.000001 0.000001 0.000000 0.000001 0.000001 0.000000 0.000003 0.000001 0.000000 0.000001 0.000001 0.000000 0.000002 0.000001 -0.000001 -0.000002 0.000001 -0.000001 -0.000002 0.000001 -0.000001 -0.000002 0.000001 -0.000001 -0.000002 0.000001 -0.000001 -0.000002 0.000001 -0.000001 -0.000002 0.000001 -0.000001 -0.000002 -0.000000 -0.000001 0.000001 0.000000 0.000001 0.000000 
-3.586440 94.104317 -3.117592 2.888160 -12.580578 6.985173 0.000000 -0.000000 -0.000000 -3.362036 19.339686 -9.639291 2.795752 0.195417 0.001028 -1.866962 4.002170 3.920293 -0.000000 -0.000000 -0.000000 -0.000000 -0.000001 0.000001 -29.404719 -8.314939 -19.326140 31.426274 0.973701 0.396401 -5.601497 -5.172910 5.144306 0.000000 -0.000003 -0.000000 -0.000000 -0.000001 -0.000000 3.233803 -0.169924 1.629315 6.430562 -0.226408 3.940621 6.439958 -0.251699 3.946486 -1.338955 0.443644 1.109991 -1.338963 0.443652 1.109980 -0.000001 0.000002 0.000001 -1.339025 0.443669 1.109984 -1.338745 0.443611 1.109986 -0.000000 0.000001 -0.000001 -0.000001 0.000002 0.000001 6.109779 -17.572113 18.002268 24.015058 -19.958306 -76.112684 -4.694211 -56.883014 -5.980026 -8.238900 -8.166114 2.025169 -24.045090 17.677163 -3.718591 4.579917 20.156863 6.820427 -0.000003 -0.000000 -0.000003 -3.205750 4.998315 -6.703849 1.698802 4.513205 -14.433674 -0.000006 -0.000001 0.000001 -8.089799 6.650539 -8.816206 2.630464 4.715614 -21.563694 0.000002 -0.000000 0.000001 -13.830794 10.722300 -21.236508 2.664222 4.636739 -20.463880 0.000000 -0.000001 0.000001 -8.083682 10.993797 -33.594733 1.080960 -0.085326 -7.982485 0.000003 -0.000009 0.000001 0.000001 0.000000 -0.000000 0.000001 0.000000 -0.000000 0.000000 0.000000 0.000000 -0.000002 -0.000003 -0.000002 -0.000002 -0.000003 -0.000001 -0.000002 -0.000003 -0.000002 -0.000002 -0.000003 -0.000003 5.014993 13.451867 -8.424360 -17.757232 14.991376 49.877767 45.017459 58.679999 -40.407942 -10.105670 15.651338 16.796195 -26.636261 -16.526659 6.257292 1.415500 -12.195220 -5.686783 0.000003 -0.000003 0.000001 -2.665545 -5.546702 -1.431781 1.927668 -5.517337 20.476084 0.000001 -0.000001 0.000000 -7.408026 -5.418991 4.683260 2.319390 -4.786687 19.163247 0.000000 0.000002 -0.000002 -13.748032 -7.947759 6.080967 2.589672 -4.774379 20.770991 -0.000001 0.000002 0.000003 -18.443343 -13.516631 9.057077 1.246734 -0.706956 14.551435 0.000002 0.000002 -0.000001 -0.000000 -0.000001 0.000001 0.000002 -0.000001 0.000002 -0.000000 -0.000002 0.000000 -0.000001 0.000000 0.000002 -0.000001 0.000001 0.000002 -0.000001 0.000000 0.000002 -0.000001 0.000001 0.000002 0.000001 0.000000 0.000001 0.000001 0.000000 0.000001 0.000001 0.000000 0.000001 0.000001 0.000000 0.000001 0.000001 0.000000 0.000001 0.000001 0.000000 0.000001 0.000001 0.000000 0.000001 -0.000000 0.000001 0.000001 0.000000 -0.000000 -0.000000 
-3.673520 94.330330 -2.188706 1.091325 -11.845296 6.223872 -0.000000 -0.000001 0.000000 -1.211106 18.558104 -9.257271 3.020212 0.190286 0.000377 -2.580506 3.754361 3.702333 0.000000 -0.000000 -0.000000 -0.000000 0.000000 0.000000 -26.063689 -9.339192 -19.343897 30.825450 1.006863 0.397933 -6.564629 -5.603703 5.517088 0.000000 -0.000001 0.000000 -0.000001 0.000000 -0.000001 3.003101 -0.243275 1.152426 5.966885 -0.295545 3.424933 5.975581 -0.321336 3.430742 -1.321145 0.419126 1.050656 -1.321127 0.419122 1.050654 -0.000000 0.000000 -0.000001 -1.321001 0.419176 1.050633 -1.321011 0.419127 1.050647 -0.000000 0.000001 0.000000 -0.000000 0.000000 -0.000001 5.789997 -16.117385 15.516487 23.256092 -18.736609 -74.977008 -1.588343 -54.141533 -4.827367 -8.313542 -8.657599 1.584620 -22.953576 17.321809 -2.800452 5.179912 21.340071 6.130788 0.000001 -0.000002 -0.000008 -3.592081 5.163419 -7.503288 1.738057 4.450584 -13.969012 -0.000002 -0.000000 -0.000001 -8.570180 6.871986 -9.206262 2.754232 4.783903 -22.095141 -0.000001 -0.000000 0.000000 -14.561796 11.033358 -21.304820 2.761795 4.630118 -20.461911 -0.000000 0.000001 0.000002 -9.168276 11.256919 -33.544790 1.126913 -0.067407 -8.037175 -0.000004 -0.000002 0.000004 0.000000 0.000000 0.000001 0.000000 0.000000 0.000001 -0.000001 0.000000 0.000001 0.000003 -0.000001 -0.000001 0.000003 -0.000002 0.000000 0.000003 -0.000001 -0.000001 0.000001 -0.000002 -0.000000 4.931971 12.831755 -7.480829 -13.193054 16.627798 52.140220 31.972228 53.811591 -24.670570 -9.486012 11.460232 17.232152 -26.227418 -16.924642 5.908815 1.871507 -13.472939 -5.886576 0.000000 0.000001 -0.000000 -2.818172 -6.000513 -0.099239 2.015973 -5.723352 21.843584 -0.000001 0.000000 0.000000 -7.475278 -5.629889 5.585085 2.488459 -5.143293 21.716544 0.000002 0.000001 -0.000001 -13.893493 -8.102839 8.115110 2.730218 -5.090962 22.840991 -0.000001 -0.000001 0.000001 -18.525865 -13.527164 11.841423 1.312041 -0.945479 15.968757 0.000000 0.000005 0.000001 -0.000001 0.000001 -0.000003 -0.000001 0.000001 -0.000002 -0.000001 0.000001 -0.000003 -0.000001 0.000002 -0.000001 -0.000000 0.000002 -0.000001 -0.000001 0.000002 -0.000001 -0.000000 0.000002 -0.000001 0.000000 -0.000001 -0.000000 0.000000 -0.000001 -0.000000 0.000000 -0.000001 -0.000000 0.000000 -0.000001 -0.000000 0.000000 -0.000001 -0.000000 0.000000 -0.000001 -0.000000 0.000000 -0.000001 -0.000000 -0.000000 0.000001 -0.000001 -0.000000 -0.000001 0.000000 
-3.714213 94.513596 -1.353723 -0.635753 -11.128615 5.577731 0.000000 -0.000000 0.000000 0.754718 17.722942 -8.922612 3.362755 0.176123 -0.008729 -3.285864 3.650241 3.545396 0.000000 -0.000001 -0.000000 -0.000000 -0.000000 -0.000000 -22.836761 -10.060258 -19.279000 30.252127 1.038538 0.399440 -7.413511 -6.249769 5.898021 0.000000 -0.000003 0.000000 0.000001 -0.000001 -0.000001 2.820148 -0.249895 0.628797 5.598706 -0.268398 2.925759 5.606794 -0.297761 2.932082 -1.193825 0.375440 0.933132 -1.193819 0.375437 0.933134 0.000000 0.000001 -0.000002 -1.193747 0.375446 0.933135 -1.193898 0.375452 0.933126 -0.000000 0.000000 -0.000000 0.000000 0.000001 -0.000001 5.535351 -14.988825 12.969689 22.550950 -17.319336 -73.663891 0.270433 -51.815772 -4.461177 -8.373579 -9.197908 1.412225 -22.244147 17.108439 -2.214586 5.566913 22.098671 5.680425 -0.000002 -0.000000 -0.000005 -3.837959 5.274948 -8.014496 1.763568 4.411427 -13.674887 -0.000004 0.000000 -0.000000 -8.876517 7.017572 -9.454614 2.850110 4.865827 -22.700844 -0.000002 -0.000001 0.000001 -15.029756 11.234217 -21.346363 2.824357 4.626083 -20.462096 0.000000 -0.000001 0.000000 -10.247180 11.483892 -33.438479 1.157030 -0.051323 -8.100901 0.000002 -0.000002 -0.000001 -0.000002 0.000000 -0.000000 -0.000002 0.000000 -0.000000 -0.000003 0.000000 -0.000000 0.000001 -0.000001 -0.000002 0.000002 -0.000003 -0.000003 0.000001 -0.000001 -0.000002 -0.000000 -0.000002 -0.000003 4.802927 12.928265 -5.821520 -9.820110 17.252981 54.082059 23.440390 48.139703 -13.160633 -8.517912 7.504366 15.658468 -25.615306 -17.144550 5.344037 2.484598 -15.017066 -5.985339 -0.000003 0.000001 -0.000000 -2.965356 -6.890662 1.322815 2.130278 -5.943830 23.356445 0.000000 0.000001 0.000000 -7.656544 -5.876506 6.462575 2.738462 -5.551575 24.823880 0.000001 -0.000001 -0.000001 -14.185084 -8.200462 10.518118 2.928078 -5.451236 25.298447 0.000000 -0.000003 -0.000000 -18.766235 -13.163086 15.274523 1.398013 -1.227711 17.546092 -0.000001 0.000003 0.000004 0.000003 0.000001 -0.000001 0.000003 0.000001 0.000002 0.000003 0.000001 0.000001 0.000000 0.000000 -0.000001 0.000000 0.000000 0.000000 0.000000 0.000000 -0.000001 0.000000 -0.000001 0.000000 0.000000 -0.000001 0.000001 0.000000 -0.000001 0.000001 0.000000 -0.000001 0.000001 0.000000 -0.000001 0.000001 0.000000 -0.000001 0.000001 0.000000 -0.000001 0.000001 0.000000 -0.000001 0.000001 -0.000000 -0.000001 -0.000000 0.000000 -0.000000 0.000000 
